<svg xmlns="http://www.w3.org/2000/svg" version="1.1" xmlns:xlink="http://www.w3.org/1999/xlink" xmlns:svgjs="http://svgjs.dev/svgjs" width="2000" height="1247" viewBox="0 0 2000 1247"><g transform="matrix(1,0,0,1,-1.2121212121212466,131.9848809961968)"><svg viewBox="0 0 396 247" data-background-color="#ffffff" preserveAspectRatio="xMidYMid meet" height="1247" width="2000" xmlns="http://www.w3.org/2000/svg" xmlns:xlink="http://www.w3.org/1999/xlink"><g id="tight-bounds" transform="matrix(1,0,0,1,0.2400000000000091,-0.09999999999999432)"><svg viewBox="0 0 395.52 247.2" height="247.2" width="395.52"><g><svg></svg></g><g><svg viewBox="0 0 395.52 247.2" height="247.2" width="395.52"><g transform="matrix(1,0,0,1,75.54432,102.1927949044586)"><svg viewBox="0 0 244.43135999999998 42.81441019108279" height="42.81441019108279" width="244.43135999999998"><g><svg viewBox="0 0 244.43135999999998 42.81441019108279" height="42.81441019108279" width="244.43135999999998"><g><svg viewBox="0 0 244.43135999999998 42.81441019108279" height="42.81441019108279" width="244.43135999999998"><g><svg viewBox="0 0 244.43135999999998 42.81441019108279" height="42.81441019108279" width="244.43135999999998"><g id="textblocktransform"><svg viewBox="0 0 244.43135999999998 42.81441019108279" height="42.81441019108279" width="244.43135999999998" id="textblock"><g><svg viewBox="0 0 244.43135999999998 42.81441019108279" height="42.81441019108279" width="244.43135999999998"><g transform="matrix(1,0,0,1,0,0)"><svg width="244.43135999999998" viewBox="1 -47 282.57000732421875 49.5" height="42.81441019108279" data-palette-color="#1b73c2"><path d="M43.4-32Q43.4-27.75 40.4-24.68 37.4-21.6 31.65-20.25L31.65-20.25Q34.75-19.4 36.35-17.48 37.95-15.55 37.95-13.05L37.95-13.05Q37.95-9.1 35.48-6.2 33-3.3 28.25-1.73 23.5-0.15 16.8-0.15L16.8-0.15Q14.3-0.15 12.8-0.3L12.8-0.3Q12.75 1.1 11.6 1.8 10.45 2.5 8.65 2.5L8.65 2.5Q6.85 2.5 6.18 1.7 5.5 0.9 5.6-0.65L5.6-0.65Q6.05-7.65 7.35-15.33 8.65-23 10.65-30.15L10.65-30.15Q11-31.4 12.05-31.9 13.1-32.4 14.8-32.4L14.8-32.4Q17.85-32.4 17.85-30.7L17.85-30.7Q17.85-30 17.55-29.1L17.55-29.1Q16.25-25.2 14.95-18.53 13.65-11.85 13.1-5.8L13.1-5.8Q15.5-5.6 17-5.6L17-5.6Q24-5.6 27.28-7.63 30.55-9.65 30.55-12.8L30.55-12.8Q30.55-15 28.68-16.5 26.8-18 22.4-18.15L22.4-18.15Q21.4-18.2 21-18.65 20.6-19.1 20.6-20.1L20.6-20.1Q20.6-21.55 21.2-22.45 21.8-23.35 23.4-23.4L23.4-23.4Q26.95-23.5 29.83-24.45 32.7-25.4 34.35-27.13 36-28.85 36-31.15L36-31.15Q36-34.05 33.15-35.73 30.3-37.4 24.4-37.4L24.4-37.4Q19.05-37.4 14.05-36.02 9.05-34.65 5.55-32.55L5.55-32.55Q3.95-31.6 2.85-31.6L2.85-31.6Q1.95-31.6 1.48-32.23 1-32.85 1-33.8L1-33.8Q1-35.05 1.53-35.95 2.05-36.85 4.05-38L4.05-38Q8.25-40.4 13.9-41.75 19.55-43.1 25.45-43.1L25.45-43.1Q34.5-43.1 38.95-40.05 43.4-37 43.4-32L43.4-32ZM47.85 0.25Q45.6 0.25 44.17-1.83 42.75-3.9 42.75-7L42.75-7Q42.75-10.75 43.25-13.88 43.75-17 44.9-20.5L44.9-20.5Q45.4-22 46.3-22.65 47.2-23.3 49.15-23.3L49.15-23.3Q50.25-23.3 50.67-22.95 51.1-22.6 51.1-21.9L51.1-21.9Q51.1-21.5 50.55-19.2L50.55-19.2Q50.05-17.35 49.75-15.85L49.75-15.85Q48.75-10.6 48.75-8.85L48.75-8.85Q48.75-7.8 49-7.38 49.25-6.95 49.8-6.95L49.8-6.95Q50.55-6.95 51.67-8.45 52.8-9.95 54.07-13 55.35-16.05 56.55-20.5L56.55-20.5Q56.95-22 57.77-22.65 58.6-23.3 60.25-23.3L60.25-23.3Q61.4-23.3 61.85-23.03 62.3-22.75 62.3-22L62.3-22Q62.3-20.75 61.05-15.15L61.05-15.15Q59.65-8.75 59.65-7.25L59.65-7.25Q59.65-6.3 60.05-5.78 60.45-5.25 61.1-5.25L61.1-5.25Q62.1-5.25 63.47-6.48 64.85-7.7 67.15-10.45L67.15-10.45Q67.75-11.15 68.5-11.15L68.5-11.15Q69.15-11.15 69.52-10.55 69.9-9.95 69.9-8.9L69.9-8.9Q69.9-6.9 68.95-5.8L68.95-5.8Q66.8-3.15 64.32-1.45 61.85 0.25 58.7 0.25L58.7 0.25Q56.3 0.25 55.17-1.6 54.05-3.45 54.05-6.8L54.05-6.8Q53.2-3.4 51.5-1.58 49.8 0.25 47.85 0.25L47.85 0.25ZM84.8-11.15Q85.45-11.15 85.82-10.55 86.2-9.95 86.2-8.9L86.2-8.9Q86.2-6.9 85.25-5.8L85.25-5.8Q83.1-3.15 80.57-1.45 78.05 0.25 74.85 0.25L74.85 0.25Q70.45 0.25 68.32-3.75 66.2-7.75 66.2-14.1L66.2-14.1Q66.2-20.2 67.77-28 69.35-35.8 72.42-41.4 75.5-47 79.75-47L79.75-47Q82.15-47 83.52-44.78 84.9-42.55 84.9-38.4L84.9-38.4Q84.9-32.45 81.6-24.6 78.3-16.75 72.65-9.05L72.65-9.05Q73-7 73.8-6.13 74.6-5.25 75.9-5.25L75.9-5.25Q77.95-5.25 79.5-6.43 81.05-7.6 83.45-10.45L83.45-10.45Q84.05-11.15 84.8-11.15L84.8-11.15ZM78.65-42.05Q77.5-42.05 76.05-37.9 74.6-33.75 73.5-27.6 72.4-21.45 72.3-15.8L72.3-15.8Q75.85-21.65 77.95-27.53 80.05-33.4 80.05-38.25L80.05-38.25Q80.05-42.05 78.65-42.05L78.65-42.05ZM101.09-11.15Q101.74-11.15 102.12-10.55 102.49-9.95 102.49-8.9L102.49-8.9Q102.49-6.9 101.54-5.8L101.54-5.8Q99.39-3.15 96.87-1.45 94.34 0.25 91.14 0.25L91.14 0.25Q86.74 0.25 84.62-3.75 82.49-7.75 82.49-14.1L82.49-14.1Q82.49-20.2 84.07-28 85.64-35.8 88.72-41.4 91.79-47 96.04-47L96.04-47Q98.44-47 99.82-44.78 101.19-42.55 101.19-38.4L101.19-38.4Q101.19-32.45 97.89-24.6 94.59-16.75 88.94-9.05L88.94-9.05Q89.29-7 90.09-6.13 90.89-5.25 92.19-5.25L92.19-5.25Q94.24-5.25 95.79-6.43 97.34-7.6 99.74-10.45L99.74-10.45Q100.34-11.15 101.09-11.15L101.09-11.15ZM94.94-42.05Q93.79-42.05 92.34-37.9 90.89-33.75 89.79-27.6 88.69-21.45 88.59-15.8L88.59-15.8Q92.14-21.65 94.24-27.53 96.34-33.4 96.34-38.25L96.34-38.25Q96.34-42.05 94.94-42.05L94.94-42.05ZM104.99-26.6Q102.89-26.6 101.84-27.58 100.79-28.55 100.79-30.3L100.79-30.3Q100.79-32.05 102.17-33.23 103.54-34.4 105.59-34.4L105.59-34.4Q107.44-34.4 108.59-33.5 109.74-32.6 109.74-30.95L109.74-30.95Q109.74-28.95 108.44-27.78 107.14-26.6 104.99-26.6L104.99-26.6ZM104.59 0.25Q101.34 0.25 99.87-2.05 98.39-4.35 98.39-8.15L98.39-8.15Q98.39-10.4 98.97-13.93 99.54-17.45 100.44-20.5L100.44-20.5Q100.89-22.1 101.64-22.7 102.39-23.3 104.04-23.3L104.04-23.3Q106.59-23.3 106.59-21.6L106.59-21.6Q106.59-20.35 105.64-15.8L105.64-15.8Q104.44-10.3 104.44-8.35L104.44-8.35Q104.44-6.85 104.84-6.05 105.24-5.25 106.19-5.25L106.19-5.25Q107.09-5.25 108.44-6.5 109.79-7.75 112.04-10.45L112.04-10.45Q112.64-11.15 113.39-11.15L113.39-11.15Q114.04-11.15 114.42-10.55 114.79-9.95 114.79-8.9L114.79-8.9Q114.79-6.9 113.84-5.8L113.84-5.8Q108.89 0.25 104.59 0.25L104.59 0.25ZM136.24-15.35Q136.89-15.35 137.24-14.7 137.59-14.05 137.59-13.05L137.59-13.05Q137.59-10.65 136.14-10.2L136.14-10.2Q133.14-9.15 129.54-9L129.54-9Q128.59-4.8 125.79-2.27 122.99 0.25 119.44 0.25L119.44 0.25Q116.44 0.25 114.31-1.2 112.19-2.65 111.09-5.05 109.99-7.45 109.99-10.25L109.99-10.25Q109.99-14.05 111.44-17.03 112.89-20 115.44-21.68 117.99-23.35 121.09-23.35L121.09-23.35Q124.89-23.35 127.21-20.73 129.54-18.1 129.94-14.25L129.94-14.25Q132.29-14.4 135.54-15.25L135.54-15.25Q135.94-15.35 136.24-15.35L136.24-15.35ZM119.84-5.05Q121.44-5.05 122.61-6.35 123.79-7.65 124.19-10.1L124.19-10.1Q122.64-11.15 121.81-12.85 120.99-14.55 120.99-16.45L120.99-16.45Q120.99-17.25 121.14-18.05L121.14-18.05 120.89-18.05Q118.89-18.05 117.56-16.13 116.24-14.2 116.24-10.7L116.24-10.7Q116.24-7.95 117.31-6.5 118.39-5.05 119.84-5.05L119.84-5.05ZM136.84 0.25Q134.94 0.25 134.16-1.75 133.39-3.75 133.39-8.15L133.39-8.15Q133.39-14.65 135.24-20.5L135.24-20.5Q135.69-21.95 136.71-22.63 137.74-23.3 139.59-23.3L139.59-23.3Q140.59-23.3 140.99-23.05 141.39-22.8 141.39-22.1L141.39-22.1Q141.39-21.3 140.64-18.5L140.64-18.5Q140.14-16.5 139.84-15 139.54-13.5 139.34-11.3L139.34-11.3Q140.99-15.6 143.04-18.3 145.09-21 147.06-22.15 149.04-23.3 150.69-23.3L150.69-23.3Q153.94-23.3 153.94-20.05L153.94-20.05Q153.94-18.1 152.84-13L152.84-13Q151.89-8.65 151.89-7.25L151.89-7.25Q151.89-5.25 153.34-5.25L153.34-5.25Q154.34-5.25 155.71-6.48 157.09-7.7 159.39-10.45L159.39-10.45Q159.99-11.15 160.74-11.15L160.74-11.15Q161.39-11.15 161.76-10.55 162.14-9.95 162.14-8.9L162.14-8.9Q162.14-6.9 161.19-5.8L161.19-5.8Q159.04-3.15 156.56-1.45 154.09 0.25 150.94 0.25L150.94 0.25Q148.39 0.25 147.09-1.23 145.79-2.7 145.79-5.5L145.79-5.5Q145.79-6.9 146.49-10.5L146.49-10.5Q147.14-13.65 147.14-14.85L147.14-14.85Q147.14-15.65 146.59-15.65L146.59-15.65Q145.94-15.65 144.76-13.98 143.59-12.3 142.36-9.55 141.14-6.8 140.39-3.75L140.39-3.75Q139.84-1.4 139.11-0.58 138.39 0.25 136.84 0.25L136.84 0.25ZM210.98-41.5Q212.53-41.2 213.31-40.45 214.08-39.7 214.08-38.7L214.08-38.7Q214.08-37.05 213.16-36.3 212.23-35.55 210.23-35.7L210.23-35.7Q205.73-36.05 203.21-36.18 200.68-36.3 196.58-36.35L196.58-36.35Q194.73-27.15 193.18-17.85L193.18-17.85Q192.63-14.45 192.03-9.98 191.43-5.5 191.23-2.75L191.23-2.75Q191.13-1.3 190.03-0.53 188.93 0.25 187.38 0.25L187.38 0.25Q185.73 0.25 184.83-0.55 183.93-1.35 183.93-2.65L183.93-2.65Q183.93-3.85 184.31-6.63 184.68-9.4 185.18-12.45L185.18-12.45Q185.73-15.5 186.03-17.75L186.03-17.75Q186.58-21.55 187.28-25.3 187.98-29.05 188.68-32.4L188.68-32.4Q188.83-33.15 189.03-34.13 189.23-35.1 189.48-36.3L189.48-36.3Q184.58-36.15 181.78-35.5 178.98-34.85 177.81-33.68 176.63-32.5 176.63-30.65L176.63-30.65Q176.63-28.95 177.63-27.4L177.63-27.4Q177.83-27.05 177.83-26.65L177.83-26.65Q177.83-25.7 176.71-24.88 175.58-24.05 174.38-24.05L174.38-24.05Q173.53-24.05 172.98-24.55L172.98-24.55Q171.98-25.4 171.33-26.98 170.68-28.55 170.68-30.55L170.68-30.55Q170.68-34.8 173.46-37.38 176.23-39.95 181.91-41.15 187.58-42.35 196.48-42.35L196.48-42.35Q201.98-42.35 205.26-42.15 208.53-41.95 210.98-41.5L210.98-41.5ZM208.23 0.25Q206.33 0.25 205.55-1.75 204.78-3.75 204.78-8.15L204.78-8.15Q204.78-14.65 206.63-20.5L206.63-20.5Q207.08-21.95 208.1-22.63 209.13-23.3 210.98-23.3L210.98-23.3Q211.98-23.3 212.38-23.05 212.78-22.8 212.78-22.1L212.78-22.1Q212.78-21.3 212.03-18.5L212.03-18.5Q211.53-16.5 211.23-15 210.93-13.5 210.73-11.3L210.73-11.3Q212.38-15.6 214.43-18.3 216.48-21 218.45-22.15 220.43-23.3 222.08-23.3L222.08-23.3Q225.33-23.3 225.33-20.05L225.33-20.05Q225.33-19.4 224.88-16.9L224.88-16.9Q224.48-14.9 224.48-14.4L224.48-14.4Q224.48-12.65 225.73-12.65L225.73-12.65Q227.13-12.65 229.33-14.85L229.33-14.85Q229.98-15.5 230.68-15.5L230.68-15.5Q231.33-15.5 231.7-14.93 232.08-14.35 232.08-13.4L232.08-13.4Q232.08-11.55 231.08-10.5L231.08-10.5Q229.68-9.05 227.8-8.03 225.93-7 223.83-7L223.83-7Q221.18-7 219.8-8.35 218.43-9.7 218.43-12L218.43-12Q218.43-12.75 218.58-13.5L218.58-13.5Q218.68-14.5 218.68-14.85L218.68-14.85Q218.68-15.65 218.13-15.65L218.13-15.65Q217.38-15.65 216.15-13.98 214.93-12.3 213.73-9.55 212.53-6.8 211.78-3.75L211.78-3.75Q211.23-1.4 210.5-0.58 209.78 0.25 208.23 0.25L208.23 0.25ZM233.58 0.25Q230.48 0.25 228.63-2 226.78-4.25 226.78-7.9L226.78-7.9Q226.78-11.9 228.63-15.48 230.48-19.05 233.55-21.23 236.63-23.4 240.08-23.4L240.08-23.4Q241.18-23.4 241.55-22.98 241.93-22.55 242.18-21.45L242.18-21.45Q243.23-21.65 244.38-21.65L244.38-21.65Q246.83-21.65 246.83-19.9L246.83-19.9Q246.83-18.85 246.08-14.9L246.08-14.9Q244.93-9.15 244.93-6.9L244.93-6.9Q244.93-6.15 245.3-5.7 245.68-5.25 246.28-5.25L246.28-5.25Q247.23-5.25 248.58-6.48 249.93-7.7 252.23-10.45L252.23-10.45Q252.83-11.15 253.58-11.15L253.58-11.15Q254.23-11.15 254.6-10.55 254.98-9.95 254.98-8.9L254.98-8.9Q254.98-6.9 254.03-5.8L254.03-5.8Q251.98-3.25 249.68-1.5 247.38 0.25 245.23 0.25L245.23 0.25Q243.58 0.25 242.2-0.88 240.83-2 240.13-3.95L240.13-3.95Q237.53 0.25 233.58 0.25L233.58 0.25ZM235.38-4.8Q236.48-4.8 237.48-6.1 238.48-7.4 238.93-9.55L238.93-9.55 240.78-18.75Q238.68-18.7 236.9-17.18 235.13-15.65 234.08-13.15 233.03-10.65 233.03-7.85L233.03-7.85Q233.03-6.3 233.65-5.55 234.28-4.8 235.38-4.8L235.38-4.8ZM257.47-26.6Q255.37-26.6 254.32-27.58 253.27-28.55 253.27-30.3L253.27-30.3Q253.27-32.05 254.65-33.23 256.02-34.4 258.07-34.4L258.07-34.4Q259.92-34.4 261.07-33.5 262.22-32.6 262.22-30.95L262.22-30.95Q262.22-28.95 260.92-27.78 259.62-26.6 257.47-26.6L257.47-26.6ZM257.07 0.25Q253.82 0.25 252.35-2.05 250.87-4.35 250.87-8.15L250.87-8.15Q250.87-10.4 251.45-13.93 252.02-17.45 252.92-20.5L252.92-20.5Q253.37-22.1 254.12-22.7 254.87-23.3 256.52-23.3L256.52-23.3Q259.07-23.3 259.07-21.6L259.07-21.6Q259.07-20.35 258.12-15.8L258.12-15.8Q256.92-10.3 256.92-8.35L256.92-8.35Q256.92-6.85 257.32-6.05 257.72-5.25 258.67-5.25L258.67-5.25Q259.57-5.25 260.92-6.5 262.27-7.75 264.52-10.45L264.52-10.45Q265.12-11.15 265.87-11.15L265.87-11.15Q266.52-11.15 266.9-10.55 267.27-9.95 267.27-8.9L267.27-8.9Q267.27-6.9 266.32-5.8L266.32-5.8Q261.37 0.25 257.07 0.25L257.07 0.25ZM282.17-11.15Q282.82-11.15 283.2-10.55 283.57-9.95 283.57-8.9L283.57-8.9Q283.57-6.9 282.62-5.8L282.62-5.8Q280.47-3.15 277.95-1.45 275.42 0.25 272.22 0.25L272.22 0.25Q267.82 0.25 265.7-3.75 263.57-7.75 263.57-14.1L263.57-14.1Q263.57-20.2 265.15-28 266.72-35.8 269.8-41.4 272.87-47 277.12-47L277.12-47Q279.52-47 280.9-44.78 282.27-42.55 282.27-38.4L282.27-38.4Q282.27-32.45 278.97-24.6 275.67-16.75 270.02-9.05L270.02-9.05Q270.37-7 271.17-6.13 271.97-5.25 273.27-5.25L273.27-5.25Q275.32-5.25 276.87-6.43 278.42-7.6 280.82-10.45L280.82-10.45Q281.42-11.15 282.17-11.15L282.17-11.15ZM276.02-42.05Q274.87-42.05 273.42-37.9 271.97-33.75 270.87-27.6 269.77-21.45 269.67-15.8L269.67-15.8Q273.22-21.65 275.32-27.53 277.42-33.4 277.42-38.25L277.42-38.25Q277.42-42.05 276.02-42.05L276.02-42.05Z" opacity="1" transform="matrix(1,0,0,1,0,0)" fill="#1b73c2" class="wordmark-text-0" data-fill-palette-color="primary" id="text-0"></path></svg></g></svg></g></svg></g></svg></g><g></g></svg></g></svg></g></svg></g><g><path d="M79.677 92.085A122.216 122.216 0 0 1 315.843 92.085L311.982 92.085A118.355 118.355 0 0 0 83.538 92.085L79.677 92.085M79.677 155.115A122.216 122.216 0 0 0 315.843 155.115L311.982 155.115A118.355 118.355 0 0 1 83.538 155.115L79.677 155.115" fill="#49a0ec" stroke="transparent" data-fill-palette-color="tertiary"></path></g></svg></g><defs></defs></svg><rect width="395.52" height="247.2" fill="none" stroke="none" visibility="hidden"></rect></g></svg></g></svg>